<svg xmlns="http://www.w3.org/2000/svg" viewBox="0 0 360 360" role="img" aria-label="Minimal boy and girl with one arm each, lowered"  fill="transparent">
    <defs>
        <!-- Boy gradient -->
        <linearGradient id="boyGradient" x1="0" y1="0" x2="0" y2="1">
            <stop offset="0%" stop-color="#3DDCFF"/>
            <stop offset="100%" stop-color="#007BFF"/>
        </linearGradient>

        <!-- Girl gradient -->
        <linearGradient id="girlGradient" x1="0" y1="0" x2="0" y2="1">
            <stop offset="0%" stop-color="#FFD86B"/>
            <stop offset="100%" stop-color="#FF6B87"/>
        </linearGradient>

        <!-- Soft shadow -->
        <filter id="softShadow" x="-20%" y="-20%" width="140%" height="140%">
            <feDropShadow dx="0" dy="3" stdDeviation="6" flood-opacity="0.12"/>
        </filter>
    </defs>

    <rect width="100%" height="100%"/>

    <!-- BOY -->
    <g transform="translate(-5,60)" filter="url(#softShadow)">
        <!-- outer left arm only, lowered -->
        <rect x="5" y="70" width="25" height="90" rx="12"
              transform="rotate(-35 5 70)" fill="url(#boyGradient)"/>
        <!-- head -->
        <circle cx="120" cy="70" r="46" fill="url(#boyGradient)"/>
        <!-- body -->
        <path d="M52,144
             C78,120 98,112 120,112
             C142,112 162,120 188,144
             L188,146
             C176,186 168,212 120,212
             C72,212 64,186 52,146 Z"
              fill="url(#boyGradient)"/>
    </g>

    <!-- GIRL -->
    <g transform="translate(139,60)" filter="url(#softShadow)">
        <!-- outer right arm only, lowered -->
        <rect x="205" y="70" width="25" height="90" rx="12"
              transform="rotate(35 205 70)" fill="url(#girlGradient)"/>
        <!-- head -->
        <circle cx="120" cy="70" r="46" fill="url(#girlGradient)"/>
        <!-- pigtails -->
        <path d="M72,60
             c-22,-18 -42,-10 -48,6
             c10,-2 18,3 24,10
             c6,7 12,12 24,10
             c2,-10 -2,-20 0,-26Z"
              fill="url(#girlGradient)"/>
        <path d="M168,60
             c22,-18 42,-10 48,6
             c-10,-2 -18,3 -24,10
             c-6,7 -12,12 -24,10
             c-2,-10 2,-20 0,-26Z"
              fill="url(#girlGradient)"/>
        <!-- dress -->
        <path d="M52,144
             C78,120 98,112 120,112
             C142,112 162,120 188,144
             L188,146
             C176,186 168,212 120,212
             C72,212 64,186 52,146 Z"
              fill="url(#girlGradient)"/>
    </g>
</svg>