<?xml version="1.0" standalone="no"?>
<!DOCTYPE svg PUBLIC "-//W3C//DTD SVG 20010904//EN" "http://www.w3.org/TR/2001/REC-SVG-20010904/DTD/svg10.dtd">
<svg version="1.0" xmlns="http://www.w3.org/2000/svg" width="512" height="512" viewBox="0 0 512 512" preserveAspectRatio="xMidYMid meet">
<metadata>
Animated speech bubble with sound wave equalizer
</metadata>

<!-- Speech bubble outline with transparent fill -->
    <g transform="translate(0.000000,512.000000) scale(0.100000,-0.100000)"
       fill="#00D4FD" stroke="none">
        <path d="M1505 4982 c-4 -4 -83 -12 -117 -13 -16 0 -28 -5 -28 -10 0 -6 -8 -8
-17 -5 -9 4 -20 1 -24 -6 -6 -9 -13 -9 -33 0 -22 10 -24 9 -19 -5 5 -12 2 -15
-10 -10 -9 3 -19 2 -22 -2 -3 -5 -14 -7 -25 -4 -11 3 -20 1 -20 -4 0 -5 -10
-9 -22 -10 -11 -1 -24 -7 -28 -12 -3 -6 -15 -12 -25 -14 -46 -9 -75 -20 -75
-29 0 -5 -4 -6 -10 -3 -5 3 -10 2 -10 -3 0 -6 -13 -9 -29 -8 -17 1 -28 -1 -25
-6 3 -4 -18 -19 -46 -33 -27 -14 -50 -31 -50 -37 0 -6 -3 -8 -7 -5 -3 4 -12
-1 -20 -11 -8 -9 -12 -12 -9 -6 3 6 -1 11 -8 11 -9 0 -12 -7 -8 -16 3 -9 2
-13 -3 -9 -4 4 -17 1 -27 -7 -11 -7 -28 -11 -37 -8 -14 4 -14 3 -1 -6 13 -9
13 -12 1 -23 -12 -11 -13 -10 -7 2 5 9 2 8 -7 -2 -8 -10 -19 -18 -25 -18 -6 0
-23 -16 -38 -35 -15 -20 -29 -33 -32 -30 -8 8 -122 -106 -122 -122 0 -15 -58
-59 -72 -55 -5 1 -7 -2 -3 -8 3 -6 12 -7 18 -3 7 4 6 -1 -2 -11 -8 -9 -20 -15
-27 -12 -8 3 -11 -2 -9 -14 2 -10 -3 -21 -11 -24 -9 -3 -13 -10 -10 -15 3 -5
-1 -12 -10 -15 -8 -3 -12 -10 -9 -16 6 -9 -8 -15 -29 -11 -5 1 -4 -5 4 -13 8
-11 9 -16 1 -17 -6 -1 -17 -2 -23 -3 -8 -1 -13 -14 -12 -34 1 -17 -2 -32 -5
-32 -4 0 -15 -22 -25 -50 -11 -29 -25 -52 -37 -55 -15 -5 -17 -10 -9 -26 7
-13 7 -19 1 -19 -9 0 -16 -15 -26 -60 -1 -3 -7 -18 -14 -35 -7 -16 -13 -43
-13 -58 -1 -15 -5 -30 -10 -33 -4 -3 -5 -17 -2 -31 5 -19 4 -24 -6 -18 -9 6
-10 0 -5 -24 4 -17 3 -31 -2 -31 -11 0 -12 -12 -15 -813 -2 -394 1 -717 5
-717 4 0 7 -19 6 -43 -2 -24 0 -48 4 -54 4 -5 2 -24 -2 -41 -8 -26 -7 -30 6
-25 13 5 15 1 9 -20 -4 -17 -2 -27 4 -27 7 0 9 -8 5 -20 -4 -11 -2 -20 4 -20
6 0 10 -8 9 -17 -3 -40 2 -64 13 -57 8 4 9 0 4 -15 -4 -12 -2 -21 4 -21 6 0 8
-7 5 -15 -4 -8 -1 -15 6 -15 6 0 9 -4 5 -9 -3 -5 -1 -12 5 -16 6 -4 8 -11 5
-16 -4 -5 -2 -9 2 -9 5 0 10 -10 10 -22 1 -13 7 -24 13 -26 5 -2 8 -8 4 -13
-3 -5 0 -9 6 -9 8 0 8 -6 0 -20 -9 -16 -8 -18 5 -14 10 4 15 0 15 -10 0 -9 5
-16 11 -16 5 0 7 -5 4 -10 -3 -6 -1 -10 5 -10 6 0 9 -4 6 -9 -4 -5 -1 -11 5
-13 6 -2 12 -15 12 -30 1 -14 5 -24 8 -23 7 5 39 -32 39 -45 0 -6 3 -10 8 -10
4 0 16 -12 26 -27 12 -17 14 -24 5 -19 -8 5 4 -9 26 -29 22 -20 33 -33 25 -29
-8 4 13 -19 48 -51 34 -32 60 -60 57 -63 -7 -8 26 -42 41 -42 7 0 25 -16 40
-35 15 -20 29 -33 32 -31 2 3 17 -9 31 -27 15 -18 33 -33 41 -35 8 -2 22 -10
30 -17 8 -7 22 -15 30 -17 8 -2 21 -10 28 -18 12 -13 13 -13 7 0 -4 10 -2 9 8
-2 8 -10 17 -15 20 -11 4 3 7 0 7 -7 0 -7 3 -11 6 -7 4 3 13 -1 21 -9 8 -8 19
-11 25 -8 7 4 8 2 4 -4 -11 -19 3 -34 21 -23 11 6 21 4 30 -5 8 -7 21 -10 30
-7 12 5 14 3 8 -7 -6 -10 -4 -12 8 -7 9 3 17 1 19 -5 2 -6 19 -11 36 -10 18 0
30 -3 27 -8 -3 -4 5 -6 17 -2 15 4 19 2 13 -7 -5 -10 -2 -11 14 -6 13 4 21 2
21 -5 0 -6 10 -8 26 -4 19 5 25 3 20 -4 -5 -8 2 -10 25 -5 23 4 30 3 25 -5 -5
-9 6 -10 38 -6 26 4 46 3 46 -2 0 -5 268 -8 627 -6 455 1 624 -1 613 -9 -11
-8 4 -9 58 -5 44 3 72 1 72 -5 0 -6 15 -7 36 -3 28 5 35 4 29 -6 -5 -9 -2 -10
14 -5 12 4 21 2 21 -4 0 -6 7 -8 15 -5 8 4 15 1 15 -5 0 -6 7 -8 15 -5 8 4 15
1 15 -5 0 -6 7 -8 17 -4 12 5 14 3 8 -7 -6 -10 -4 -12 8 -7 10 4 17 1 17 -5 0
-6 3 -9 6 -5 4 3 13 -1 21 -9 8 -8 18 -12 23 -9 4 3 11 -2 14 -11 3 -8 10 -12
16 -9 5 3 10 1 10 -5 0 -6 4 -9 9 -5 11 6 34 -29 25 -38 -3 -3 4 -3 17 0 18 5
21 3 15 -12 -5 -14 -4 -16 8 -6 11 9 19 5 42 -22 16 -18 25 -26 20 -17 -5 8
11 -6 35 -31 24 -25 40 -38 34 -29 -5 9 13 -6 40 -34 28 -28 46 -44 40 -36 -5
9 5 0 24 -20 18 -19 36 -35 40 -35 3 0 5 -3 4 -7 -2 -5 1 -7 6 -5 6 1 24 -14
41 -33 17 -19 28 -28 25 -20 -4 8 7 -1 23 -20 17 -19 29 -37 27 -41 -2 -3 2
-6 10 -6 12 0 13 3 3 17 -7 9 4 -2 24 -24 20 -22 34 -45 31 -50 -3 -6 -3 -8 2
-4 4 4 15 2 23 -5 13 -10 14 -9 8 3 -4 8 6 0 23 -18 18 -18 29 -36 27 -41 -3
-4 0 -8 7 -9 14 -1 37 -7 57 -15 22 -8 89 -14 85 -7 -2 3 11 14 30 24 37 20
69 74 59 100 -3 9 -1 16 5 16 7 0 9 9 5 25 -4 16 -2 25 5 25 7 0 9 10 5 26 -5
21 -4 25 6 19 10 -6 11 -2 6 19 -4 16 -3 25 2 22 5 -3 7 6 4 21 -4 19 -2 24 8
18 9 -5 10 -2 5 14 -3 11 -3 21 2 21 4 0 9 15 10 32 2 18 7 34 13 36 6 2 8 8
4 13 -3 5 0 9 6 9 7 0 10 7 6 15 -3 8 -1 15 4 15 5 0 6 7 3 17 -5 12 -3 14 7
8 10 -6 12 -4 7 8 -3 10 -2 17 4 17 6 0 7 5 4 10 -3 6 -1 10 5 10 6 0 8 5 5
10 -3 6 -1 10 5 10 6 0 9 4 6 9 -3 5 1 12 10 15 9 4 14 9 11 13 -4 3 1 12 11
20 11 10 12 12 2 8 -10 -4 -9 -2 2 8 10 8 15 17 12 20 -3 3 4 10 15 17 12 6
19 15 16 19 -3 5 2 12 10 15 8 3 14 10 13 15 -2 6 17 29 42 51 25 23 38 38 30
34 -13 -7 -13 -5 -2 9 8 9 18 15 22 14 5 -1 77 68 161 152 85 85 147 151 139
147 -8 -4 -2 4 13 18 16 15 32 24 36 22 4 -3 8 1 8 9 0 8 -5 12 -11 9 -6 -3 1
5 17 18 15 13 27 29 27 35 0 6 7 13 15 17 8 3 15 12 15 21 0 8 5 15 12 15 6 0
8 3 5 7 -4 3 1 12 11 20 11 10 12 12 2 8 -8 -4 -4 3 10 15 14 12 18 19 10 15
-10 -4 -9 -2 2 8 10 8 15 17 11 20 -3 4 2 9 11 13 9 3 13 10 10 15 -3 5 0 9 6
9 6 0 8 5 5 10 -3 6 -1 10 6 10 7 0 10 3 6 6 -3 4 1 13 9 21 8 8 12 19 9 24
-4 5 -1 9 5 9 6 0 8 4 5 10 -3 5 -2 10 4 10 6 0 8 7 5 15 -6 14 6 20 29 16 4
-1 3 8 -3 19 -7 13 -7 20 -1 20 6 0 8 7 5 15 -4 8 -1 15 5 15 6 0 8 7 5 15 -4
8 -1 15 6 15 7 0 10 7 6 15 -3 8 -1 15 3 15 5 0 7 10 3 22 -3 13 -1 19 5 15 7
-5 9 1 5 15 -3 15 -2 19 7 14 8 -6 10 -1 5 18 -4 16 -2 26 5 26 6 0 8 7 5 15
-4 8 -1 22 6 30 6 8 9 19 6 24 -4 5 -2 12 4 16 5 3 7 19 3 35 -3 18 -1 30 5
30 6 0 8 16 5 42 -4 28 -3 39 5 34 8 -4 9 14 5 62 -4 47 -2 71 6 76 16 10 16
1166 0 1166 -9 0 -10 24 -6 83 4 56 3 76 -4 62 -7 -15 -8 -10 -5 22 2 24 0 46
-6 49 -5 3 -7 17 -4 29 3 13 2 27 -4 30 -6 3 -7 17 -4 31 4 13 2 24 -4 24 -6
0 -8 9 -5 20 3 11 1 20 -5 20 -5 0 -9 12 -9 26 0 15 -6 29 -12 33 -6 4 -9 15
-5 24 3 10 1 17 -6 17 -6 0 -8 5 -5 10 3 6 2 10 -4 10 -6 0 -8 7 -5 15 4 8 1
15 -6 15 -6 0 -9 4 -6 9 3 5 -1 14 -10 21 -8 7 -13 19 -10 27 3 7 1 13 -5 13
-6 0 -7 5 -4 10 3 6 1 10 -5 10 -6 0 -8 5 -5 10 3 6 1 10 -5 10 -6 0 -8 5 -5
10 3 6 1 10 -5 10 -6 0 -8 5 -5 10 3 6 2 10 -4 10 -6 0 -15 10 -22 21 -9 17
-8 20 3 14 7 -3 4 1 -6 9 -11 9 -16 16 -11 16 5 0 0 7 -11 16 -10 8 -12 13 -4
9 10 -4 10 -2 -2 8 -12 10 -14 17 -7 24 8 8 6 11 -7 10 -15 -2 -19 4 -17 28 2
22 0 26 -7 15 -7 -12 -12 -12 -22 -2 -6 6 -8 12 -3 12 5 0 -1 7 -13 16 -12 8
-20 19 -17 24 3 5 -8 18 -25 30 -17 12 -28 25 -26 29 3 4 -31 43 -76 87 -44
43 -78 72 -74 64 4 -8 -6 1 -23 20 -17 19 -31 30 -31 25 0 -6 -5 -2 -11 8 -5
9 -17 17 -24 17 -8 0 -15 5 -15 10 0 6 -6 10 -14 10 -8 0 -17 7 -20 16 -3 8
-10 12 -16 9 -5 -3 -10 -1 -10 4 0 6 -7 11 -15 11 -8 0 -15 5 -15 11 0 5 -4 7
-10 4 -5 -3 -10 -1 -10 5 0 6 -5 8 -12 4 -7 -5 -9 -2 -6 8 4 8 0 15 -8 16 -8
1 -21 3 -29 4 -8 1 -15 5 -15 9 0 4 -9 11 -20 14 -12 4 -17 11 -13 18 4 8 1 7
-9 -1 -11 -9 -17 -9 -20 -2 -2 6 -13 12 -26 13 -12 0 -22 5 -22 10 0 4 -4 5
-10 2 -5 -3 -10 -1 -10 5 0 6 -4 9 -9 5 -5 -3 -12 -1 -16 5 -4 6 -11 8 -16 5
-5 -4 -9 -2 -9 4 0 6 -7 8 -15 5 -8 -4 -15 -1 -15 6 0 6 -5 8 -11 4 -6 -3 -15
-1 -19 6 -5 8 -22 13 -39 13 -17 0 -31 4 -31 8 0 5 -7 6 -15 3 -8 -4 -15 -1
-15 6 0 7 -8 9 -20 5 -12 -4 -20 -2 -20 5 0 7 -8 9 -20 5 -12 -4 -27 -1 -35 5
-9 7 -26 9 -45 5 -20 -4 -30 -3 -30 5 0 9 -14 10 -47 6 -27 -4 -43 -3 -36 1 6
4 -455 8 -1024 8 -569 0 -1036 -1 -1038 -3z m1985 -353 c-24 -5 -8 -6 48 -4
56 3 81 1 76 -7 -4 -7 4 -8 25 -3 21 4 31 3 31 -5 0 -8 10 -9 31 -5 23 5 29 4
24 -4 -5 -8 1 -10 19 -5 16 4 26 2 26 -5 0 -6 7 -11 15 -11 8 0 15 -4 15 -8 0
-4 8 -8 18 -9 55 -4 82 -9 82 -16 0 -5 5 -5 10 -2 6 3 10 2 10 -3 0 -10 100
-58 112 -54 4 1 8 -3 8 -9 0 -5 4 -8 9 -5 5 3 12 -1 15 -10 3 -8 10 -13 15
-10 5 3 12 -1 15 -10 3 -9 11 -12 18 -8 8 5 9 2 5 -9 -7 -19 8 -33 18 -17 5 7
12 5 20 -7 7 -10 17 -18 22 -18 14 0 73 -71 66 -79 -4 -4 1 -4 10 0 19 7 60
-22 52 -37 -3 -4 9 -19 27 -34 18 -15 26 -24 18 -19 -8 4 -5 -4 8 -18 12 -13
19 -28 15 -31 -3 -4 -1 -7 5 -7 7 0 24 -19 39 -42 15 -24 31 -45 34 -48 7 -5
9 -12 9 -31 0 -5 5 -7 10 -4 6 4 10 3 9 -2 -1 -4 0 -11 1 -15 1 -5 3 -11 4
-15 7 -28 19 -53 26 -53 4 0 8 -6 7 -12 -1 -33 4 -49 13 -43 6 3 10 2 10 -4 0
-5 -4 -13 -10 -16 -5 -3 -10 -14 -9 -23 0 -11 3 -12 6 -4 2 6 9 12 14 12 4 0
6 -7 3 -15 -4 -8 -2 -15 4 -15 6 0 8 -10 4 -22 -4 -16 -2 -19 8 -13 10 6 11 2
6 -19 -4 -15 -2 -26 4 -26 6 0 8 -10 4 -25 -4 -16 -2 -25 6 -25 8 0 9 -10 5
-31 -4 -18 -3 -34 3 -38 6 -4 7 -34 3 -78 -4 -39 -4 -70 0 -67 14 8 16 -91 13
-621 -4 -594 -5 -670 -17 -681 -4 -4 -4 -23 -1 -41 4 -23 2 -33 -6 -33 -8 0
-10 -9 -6 -25 4 -15 2 -25 -5 -25 -6 0 -9 -8 -7 -17 2 -10 -5 -26 -15 -35 -15
-13 -16 -21 -8 -37 14 -26 14 -34 -1 -25 -8 5 -9 0 -6 -14 4 -12 2 -22 -4 -22
-5 0 -6 -4 -3 -10 3 -5 1 -10 -4 -10 -6 0 -11 -4 -11 -9 0 -5 -10 -30 -22 -57
-12 -27 -21 -52 -20 -56 1 -5 -3 -8 -9 -8 -5 0 -7 -4 -4 -10 3 -5 1 -10 -5
-10 -6 0 -8 -4 -5 -10 3 -5 1 -10 -4 -10 -6 0 -11 -5 -11 -10 0 -6 -11 -22
-25 -36 -14 -14 -23 -29 -20 -34 6 -10 -34 -36 -48 -32 -5 1 -6 -2 -2 -8 3 -6
12 -7 18 -4 7 4 -21 -24 -61 -60 -43 -41 -69 -72 -65 -79 4 -7 -1 -6 -11 2 -9
8 -16 10 -14 5 4 -13 -63 -94 -73 -89 -4 3 -21 -11 -38 -30 -17 -19 -34 -35
-38 -35 -5 0 -40 -32 -78 -71 -39 -40 -63 -69 -55 -65 8 4 2 -5 -15 -20 -16
-15 -30 -30 -30 -33 0 -4 -13 -22 -29 -41 -15 -19 -25 -28 -21 -20 3 8 0 6 -9
-4 -8 -10 -13 -22 -11 -26 3 -5 -2 -11 -11 -14 -8 -3 -12 -10 -9 -16 3 -5 1
-10 -5 -10 -6 0 -9 -4 -6 -9 3 -5 -1 -11 -9 -15 -8 -3 -12 -12 -9 -20 3 -8 -4
-24 -16 -36 -11 -11 -18 -25 -15 -30 4 -6 1 -10 -5 -10 -6 0 -8 -4 -5 -10 3
-5 1 -10 -5 -10 -7 0 -10 -7 -6 -15 3 -8 1 -15 -5 -15 -6 0 -9 -7 -5 -15 3 -8
0 -15 -5 -15 -7 0 -9 -9 -6 -21 5 -17 3 -18 -9 -8 -12 10 -16 8 -21 -9 -5 -20
-8 -19 -45 21 -22 23 -37 35 -33 27 3 -8 -7 0 -23 18 -15 17 -32 32 -36 32 -4
0 -20 12 -35 28 -45 44 -133 117 -141 115 -4 -1 -13 9 -20 22 -7 14 -17 25
-22 25 -5 0 -6 -6 -3 -12 4 -7 -3 -2 -15 12 -12 14 -18 18 -14 10 7 -13 5 -13
-9 -1 -19 15 -23 36 -5 25 7 -4 8 -3 4 5 -6 9 -11 9 -21 1 -9 -8 -14 -6 -19 5
-3 9 -10 13 -16 10 -5 -3 -10 -1 -10 5 0 6 -4 9 -9 6 -5 -3 -12 1 -15 10 -4 9
-13 14 -22 10 -8 -3 -12 -2 -9 4 3 5 -10 12 -30 16 -19 3 -35 10 -35 16 0 5
-5 6 -10 3 -6 -3 -10 -1 -10 5 0 6 -5 8 -10 5 -6 -3 -10 -1 -10 5 0 7 -7 10
-15 6 -8 -3 -15 -1 -15 4 0 5 -6 7 -14 4 -8 -3 -17 -1 -20 5 -4 6 -13 8 -21 4
-8 -3 -15 0 -15 6 0 6 -6 8 -14 5 -8 -3 -17 -1 -20 4 -3 6 -15 8 -26 5 -11 -3
-20 -1 -20 5 0 7 -15 9 -37 6 -22 -3 -33 -2 -26 3 6 4 -280 7 -635 5 -464 -1
-643 1 -632 9 11 7 -6 9 -64 4 -58 -5 -77 -4 -71 5 5 8 -3 9 -29 5 -21 -4 -36
-3 -36 3 0 5 -11 7 -25 4 -14 -2 -25 0 -25 7 0 5 -7 8 -15 5 -8 -4 -15 -1 -15
5 0 6 -7 8 -15 5 -8 -4 -15 -1 -15 5 0 6 -7 8 -17 4 -12 -5 -14 -3 -8 7 6 10
4 12 -8 7 -10 -3 -17 -3 -17 1 0 4 -10 8 -22 9 -11 1 -24 7 -28 13 -10 16 -63
43 -54 27 4 -7 -5 0 -20 15 -16 15 -32 25 -37 22 -5 -3 -12 2 -15 10 -3 9 -11
16 -16 16 -5 0 -19 10 -30 22 -11 13 -16 16 -13 8 4 -8 -9 3 -28 25 -19 22
-41 40 -48 40 -8 0 -14 5 -14 12 0 7 -6 18 -14 25 -12 11 -13 10 -6 -2 5 -9 4
-12 -1 -7 -5 5 -9 12 -9 17 0 4 -16 23 -35 42 -19 18 -34 36 -33 40 2 4 -6 12
-17 18 -11 6 -18 15 -15 21 4 5 1 9 -4 9 -6 0 -11 7 -11 15 0 9 -7 18 -15 21
-8 4 -13 10 -10 14 3 4 -2 11 -11 14 -8 3 -12 10 -9 16 3 5 1 10 -4 10 -6 0
-10 3 -9 8 4 14 -13 52 -23 52 -6 0 -7 5 -4 10 3 6 1 10 -5 10 -7 0 -10 7 -6
15 3 8 1 15 -5 15 -6 0 -7 5 -4 10 3 6 2 10 -4 10 -6 0 -8 7 -5 15 4 8 1 15
-6 15 -7 0 -9 8 -5 19 3 11 0 25 -8 32 -8 8 -12 21 -9 31 2 10 -1 18 -7 18 -7
0 -9 9 -5 24 3 13 1 27 -4 30 -6 3 -8 15 -5 25 3 10 0 22 -6 25 -7 5 -9 23 -4
48 3 24 2 39 -3 35 -5 -3 -9 287 -9 708 0 392 4 711 8 708 5 -3 5 11 2 31 -5
24 -3 36 4 36 7 0 10 10 7 25 -3 14 0 25 6 25 6 0 8 9 5 20 -3 11 -1 23 4 26
6 3 7 14 4 25 -4 11 -2 19 5 19 6 0 8 5 5 10 -3 6 -1 10 5 10 6 0 9 8 6 18 -8
24 8 47 25 36 11 -6 11 -4 0 10 -13 15 -13 19 0 27 8 5 10 9 6 9 -5 0 -1 7 7
16 9 8 14 20 11 25 -4 5 -1 9 6 9 7 0 10 3 6 6 -3 4 1 13 9 21 8 8 12 19 9 24
-6 8 9 13 28 10 5 -1 6 3 2 9 -3 6 -12 8 -18 4 -7 -3 -4 1 5 9 10 8 15 17 11
21 -4 4 3 9 16 13 12 3 20 11 17 18 -3 8 2 16 10 19 9 3 13 10 10 15 -4 5 7
19 24 31 17 12 28 25 25 29 -5 9 80 92 87 85 3 -2 17 11 32 31 15 19 34 35 42
35 8 0 27 12 41 28 15 15 23 20 19 12 -4 -8 0 -6 8 4 9 11 16 17 16 13 0 -4 9
2 20 13 12 12 25 18 30 15 6 -4 10 -1 10 5 0 6 5 8 10 5 6 -3 10 -1 10 5 0 8
6 8 20 0 11 -6 20 -7 19 -3 -4 23 2 32 18 26 12 -5 14 -3 8 7 -6 10 -4 12 8 7
10 -3 17 -2 17 3 0 5 7 6 17 3 12 -5 14 -3 8 7 -6 10 -4 12 8 7 10 -4 17 -2
17 4 0 6 7 9 15 5 8 -3 15 -1 15 5 0 7 10 9 25 5 15 -4 25 -2 25 4 0 6 11 8
26 4 20 -5 25 -4 20 5 -6 8 0 10 18 5 17 -4 26 -2 26 5 0 7 9 9 25 5 14 -3 33
-3 42 2 10 4 56 7 103 7 66 -1 76 0 45 6 -22 5 397 8 930 8 534 0 954 -3 935
-8z m-3136 -381 c-3 -4 -9 -8 -15 -8 -5 0 -9 4 -9 8 0 5 7 9 15 9 8 0 12 -4 9
-9z m4603 -760 c-3 -8 -6 -5 -6 6 -1 11 2 17 5 13 3 -3 4 -12 1 -19z"/>
    </g>

<!-- Sound wave bars with animation (5 rounded rectangles) centered in speech bubble -->
<!-- Center point of bubble is around 256, 200. Bars span from roughly 140 to 372 -->
<!-- Bar 1 (leftmost, shortest) -->
<rect x="140" y="180" width="40" height="60" rx="20" ry="20" fill="#00D4FD">
  <animate attributeName="height" values="60;95;60;77;60" dur="1.2s" repeatCount="indefinite"/>
  <animate attributeName="y" values="180;162;180;171;180" dur="1.2s" repeatCount="indefinite"/>
</rect>

<!-- Bar 2 (second from left, medium-short) -->
<rect x="188" y="155" width="40" height="110" rx="20" ry="20" fill="#00D4FD">
  <animate attributeName="height" values="110;155;110;132;110" dur="1.0s" repeatCount="indefinite"/>
  <animate attributeName="y" values="155;132;155;143;155" dur="1.0s" repeatCount="indefinite"/>
</rect>

<!-- Bar 3 (center, tallest) -->
<rect x="236" y="125" width="40" height="170" rx="20" ry="20" fill="#00D4FD">
  <animate attributeName="height" values="170;205;170;187;170" dur="1.3s" repeatCount="indefinite"/>
  <animate attributeName="y" values="125;107;125;116;125" dur="1.3s" repeatCount="indefinite"/>
</rect>

<!-- Bar 4 (second from right, medium-short) -->
<rect x="284" y="155" width="40" height="110" rx="20" ry="20" fill="#00D4FD">
  <animate attributeName="height" values="110;150;110;130;110" dur="0.9s" repeatCount="indefinite"/>
  <animate attributeName="y" values="155;135;155;145;155" dur="0.9s" repeatCount="indefinite"/>
</rect>

<!-- Bar 5 (rightmost, shortest) -->
<rect x="332" y="180" width="40" height="60" rx="20" ry="20" fill="#00D4FD">
  <animate attributeName="height" values="60;100;60;80;60" dur="1.1s" repeatCount="indefinite"/>
  <animate attributeName="y" values="180;160;180;170;180" dur="1.1s" repeatCount="indefinite"/>
</rect>

</svg>
